<svg width="50" height="50" viewBox="0 0 50 50" fill="none" xmlns="http://www.w3.org/2000/svg">
    <path d="M17.3958 6.25C19.8542 5.89583 22.4583 8.58333 23.2083 12.2917C23.9583 15.9792 22.6042 19.2708 20.1458 19.6458C17.7083 20.0208 15.0833 17.3333 14.3125 13.625C13.5417 9.9375 14.9375 6.64583 17.3958 6.25ZM32.2917 6.25C34.7708 6.64583 36.1458 9.9375 35.4167 13.625C34.625 17.3333 32.0208 20.0208 29.5625 19.6458C27.0833 19.2708 25.7292 15.9792 26.5 12.2917C27.25 8.58333 29.8542 5.89583 32.2917 6.25ZM6.25001 15.8333C8.62501 14.8125 11.8542 16.6667 13.5417 19.8958C15.125 23.1875 14.5833 26.6458 12.2292 27.6667C9.87501 28.6875 6.66668 26.8542 5.02084 23.5833C3.37501 20.3125 3.95834 16.8333 6.25001 15.8333ZM43.75 15.8333C46.0417 16.8333 46.625 20.3125 44.9792 23.5833C43.3333 26.8542 40.125 28.6875 37.7708 27.6667C35.4167 26.6458 34.875 23.1875 36.4583 19.8958C38.1458 16.6667 41.375 14.8125 43.75 15.8333ZM40.2708 38.2917C40.3542 40.25 38.8542 42.4167 37.0625 43.2292C33.3333 44.9375 28.9167 41.3958 24.7708 41.3958C20.625 41.3958 16.1667 45.0833 12.5 43.2292C10.4167 42.2083 8.97918 39.5 9.25001 37.25C9.62501 34.1458 13.3542 32.4792 15.5625 30.2083C18.5 27.2708 20.5833 21.75 24.7708 21.75C28.9375 21.75 31.1458 27.1875 33.9583 30.2083C36.2708 32.75 40.125 34.8958 40.2708 38.2917Z" fill="#8fbfa8"/>
</svg>